<svg version="1.1" xmlns="http://www.w3.org/2000/svg" xmlns:xlink="http://www.w3.org/1999/xlink" width="24" height="24" viewBox="0,0,256,256"><g fill="none" fill-rule="nonzero" stroke="#fffefe" stroke-width="1.5" stroke-linecap="round" stroke-linejoin="round" stroke-miterlimit="10" stroke-dasharray="" stroke-dashoffset="0" font-family="none" font-weight="none" font-size="none" text-anchor="none" style="mix-blend-mode: normal"><g transform="translate(0.00011,0) scale(10.66667,10.66667)"><path d="M4.48438,6.21877v12.14063c0,0.7666 0.30455,1.5019 0.84665,2.044c0.54209,0.5421 1.27733,0.8466 2.04397,0.8466h9.25c0.7666,0 1.5019,-0.3045 2.044,-0.8466c0.5421,-0.5421 0.8466,-1.2774 0.8466,-2.044v-12.14063"></path><path d="M19.5156,6.21877l-3.1334,-3.13344c-0.1081,-0.10716 -0.2362,-0.19194 -0.3771,-0.24948c-0.1408,-0.05754 -0.2917,-0.08671 -0.4439,-0.08583h-7.12245c-0.15217,-0.00088 -0.30301,0.02829 -0.44389,0.08583c-0.14087,0.05754 -0.269,0.14232 -0.37704,0.24948l-3.13344,3.13344z"></path><path d="M8.53126,9.68752l0.35844,0.70528c0.23912,0.4826 0.60831,0.8888 1.06594,1.1727c0.45766,0.284 0.98546,0.4345 1.52406,0.4345h1.0406c0.5386,0 1.0664,-0.1505 1.5241,-0.4345c0.4576,-0.2839 0.8268,-0.6901 1.0659,-1.1727l0.3585,-0.70528"></path></g></g></svg>